<svg width="47" height="47" viewBox="0 0 47 47" fill="none" xmlns="http://www.w3.org/2000/svg">
<rect x="0.110229" y="0.0345459" width="46.5565" height="46" rx="23" fill="#19202A"/>
<path fill-rule="evenodd" clip-rule="evenodd" d="M23.3885 12.0345C17.1572 12.0345 12.1102 17.0816 12.1102 23.3128C12.1102 28.3034 15.3386 32.5186 19.8217 34.013C20.3856 34.1117 20.5971 33.7733 20.5971 33.4773C20.5971 33.2094 20.583 32.3213 20.583 31.3767C17.7493 31.8983 17.0163 30.6859 16.7907 30.0515C16.6638 29.7273 16.114 28.7263 15.6347 28.4585C15.2399 28.247 14.676 27.7254 15.6206 27.7113C16.5087 27.6972 17.1431 28.529 17.3546 28.8673C18.3696 30.5731 19.9909 30.0938 20.6394 29.7978C20.7381 29.0647 21.0341 28.5713 21.3584 28.2893C18.849 28.0073 16.2268 27.0346 16.2268 22.7207C16.2268 21.4942 16.6638 20.4791 17.3828 19.6896C17.27 19.4077 16.8753 18.2517 17.4956 16.7009C17.4956 16.7009 18.4401 16.4049 20.5971 17.8569C21.4994 17.6032 22.458 17.4763 23.4167 17.4763C24.3753 17.4763 25.334 17.6032 26.2362 17.8569C28.3932 16.3908 29.3377 16.7009 29.3377 16.7009C29.958 18.2517 29.5633 19.4077 29.4505 19.6896C30.1695 20.4791 30.6065 21.4801 30.6065 22.7207C30.6065 27.0487 27.9702 28.0073 25.4608 28.2893C25.8697 28.6417 26.2221 29.3184 26.2221 30.3758C26.2221 31.8842 26.208 33.0966 26.208 33.4773C26.208 33.7733 26.4195 34.1258 26.9834 34.013C31.4383 32.5186 34.6667 28.2893 34.6667 23.3128C34.6667 17.0816 29.6197 12.0345 23.3885 12.0345Z" fill="#8E98AA"/>
</svg>
