<svg width="22" height="16" viewBox="0 0 22 16" fill="none" xmlns="http://www.w3.org/2000/svg">
<path d="M13.6817 11.0145C14.3236 12.0688 15.1587 12.8438 16.6356 12.8438C17.8763 12.8438 18.6689 12.2199 18.6689 11.358C18.6689 10.325 17.8545 9.95919 16.4889 9.35825L15.7403 9.03514C13.5796 8.10906 12.1441 6.94891 12.1441 4.49632C12.1441 2.23708 13.8552 0.517212 16.5294 0.517212C18.4332 0.517212 19.8018 1.18379 20.7881 2.9291L18.4564 4.43526C17.943 3.50917 17.3892 3.14434 16.5294 3.14434C15.6523 3.14434 15.0964 3.70406 15.0964 4.43526C15.0964 5.33895 15.6528 5.7048 16.9375 6.26452L17.6861 6.58713C20.2302 7.68469 21.6667 8.80362 21.6667 11.3193C21.6667 14.0314 19.5489 15.5172 16.7049 15.5172C13.924 15.5172 12.1274 14.1841 11.2484 12.4367L13.6817 11.0145ZM3.1041 11.2755C3.57449 12.1151 4.00239 12.825 5.03117 12.825C6.01494 12.825 6.63555 12.4377 6.63555 10.9321V0.689197H9.62984V10.9728C9.62984 14.092 7.81202 15.5116 5.15863 15.5116C2.76117 15.5116 1.37277 14.2634 0.666687 12.7601L3.1041 11.2755Z" fill="#8E98AA"/>
</svg>
