<svg width="21" height="22" viewBox="0 0 21 22" fill="none" xmlns="http://www.w3.org/2000/svg">
<path fill-rule="evenodd" clip-rule="evenodd" d="M1.55186 0C0.694771 0 0 0.678001 0 1.51385V19.6194C0 20.4555 0.694771 21.1332 1.55186 21.1332H19.4481C20.3052 21.1332 21 20.4555 21 19.6194V1.51385C21 0.678001 20.3052 0 19.4481 0H1.55186ZM6.36575 17.6904V8.14757H3.19388V17.6904H6.36575ZM4.7798 6.84466C5.88589 6.84466 6.57434 6.11187 6.57434 5.19611C6.55373 4.25972 5.8859 3.54727 4.80078 3.54727C3.71579 3.54727 3.00638 4.25972 3.00638 5.19611C3.00638 6.11187 3.69468 6.84466 4.75913 6.84466H4.77974H4.7798ZM8.12092 17.6904H11.2927V12.3613C11.2927 12.0761 11.3133 11.7912 11.397 11.5873C11.6263 11.0174 12.1482 10.4272 13.0245 10.4272C14.1722 10.4272 14.6313 11.3023 14.6313 12.5852V17.6904H17.8029V12.2187C17.8029 9.28755 16.2381 7.92364 14.1513 7.92364C12.4687 7.92364 11.7143 8.8484 11.2928 9.49865V8.14757H8.12092C8.16255 9.043 8.12092 17.6904 8.12092 17.6904ZM11.2928 9.49865V9.53153H11.2716L11.2928 9.49865Z" fill="white"/>
</svg>
