<svg width="50" height="50" viewBox="0 0 50 50" fill="none" xmlns="http://www.w3.org/2000/svg">
<path d="M25 0L25.2176 0.212402C29.8864 4.77064 36.1527 7.32233 42.6777 7.32233V7.32233V7.87003C42.6777 14.3402 45.3231 20.529 50 25V25V25C45.3231 29.471 42.6777 35.6598 42.6777 42.13V42.6777V42.6777C36.1527 42.6777 29.8864 45.2294 25.2176 49.7876L25 50L24.7824 49.7876C20.1136 45.2294 13.8473 42.6777 7.32233 42.6777V42.6777V42.13C7.32233 35.6598 4.67687 29.471 0 25V25V25C4.67687 20.529 7.32233 14.3402 7.32233 7.87003V7.32233V7.32233C13.8473 7.32233 20.1136 4.77064 24.7824 0.212403L25 0Z" fill="white"/>
<path d="M16 14.75H15.75V15V36V36.25H16H20.1347H20.3847V36V25.1774V25.1697L20.3842 25.162L20.1684 21.6489L29.3745 36.1341L29.4482 36.25H29.5855H34H34.25V36V15V14.75H34H29.8342H29.5842V15V25.0307V25.0384L29.5847 25.0461L29.8006 28.5595L21.0918 14.8658L21.0181 14.75H20.8808H16Z" fill="#182029" stroke="black" stroke-width="0.5"/>
</svg>
