<svg width="18" height="18" viewBox="0 0 18 18" fill="none" xmlns="http://www.w3.org/2000/svg">
<path fill-rule="evenodd" clip-rule="evenodd" d="M17.974 0.899295C17.974 0.402586 17.5714 0 17.0747 0H10.7154C10.2187 0 9.81611 0.402586 9.81611 0.899295C9.81611 1.396 10.2187 1.79859 10.7154 1.79859H14.9035L8.80751 7.89462C8.45625 8.24587 8.45625 8.8153 8.80751 9.16639C9.15877 9.51765 9.72804 9.51765 10.0793 9.16639L16.1753 3.07037V7.25849C16.1753 7.75505 16.5781 8.15779 17.0746 8.15779C17.5713 8.15779 17.9739 7.75505 17.9739 7.25849L17.974 0.899295ZM5.17911 17.9998H12.808C13.5319 17.9998 14.1295 17.9998 14.6161 17.9601C15.1217 17.9188 15.5863 17.8302 16.0228 17.6078C16.6997 17.263 17.25 16.7125 17.5948 16.0358C17.8171 15.5993 17.9058 15.1345 17.9471 14.6291C17.9868 14.1425 17.9868 13.5449 17.9868 12.821V12.1544C17.9868 11.6577 17.5842 11.2551 17.0875 11.2551C16.5908 11.2551 16.1882 11.6577 16.1882 12.1544V12.7839C16.1882 13.5543 16.1875 14.0779 16.1545 14.4828C16.1223 14.8771 16.0639 15.0787 15.9922 15.2193C15.8198 15.5578 15.5446 15.833 15.2061 16.0054C15.0655 16.0771 14.8639 16.1355 14.4696 16.1677C14.0647 16.2007 13.5411 16.2014 12.7707 16.2014H5.21615C4.44574 16.2014 3.92209 16.2007 3.51739 16.1677C3.12309 16.1355 2.92147 16.0771 2.78086 16.0054C2.4424 15.833 2.16717 15.5578 1.99477 15.2193C1.9231 15.0787 1.86468 14.8771 1.83247 14.4828C1.79934 14.0779 1.79874 13.5543 1.79874 12.7839V5.22935C1.79874 4.45894 1.79949 3.93529 1.83247 3.53058C1.86469 3.13629 1.9231 2.93466 1.99477 2.79406C2.16716 2.4556 2.44237 2.18037 2.78086 2.00797C2.92148 1.9363 3.12308 1.87788 3.51739 1.84566C3.92225 1.81254 4.4459 1.81194 5.21615 1.81194H5.84564C6.34235 1.81194 6.74493 1.40935 6.74493 0.912642C6.74493 0.415933 6.34235 0.0133475 5.84564 0.0133475H5.17895C4.45507 0.0133475 3.85749 0.0133475 3.37088 0.0530935C2.86531 0.0943465 2.40067 0.183027 1.9642 0.405403C1.2873 0.750336 0.736981 1.30065 0.392056 1.97755C0.16968 2.41402 0.0809991 2.87881 0.0397461 3.38423C1.58518e-07 3.871 0 4.46842 0 5.1923V12.8212C0 13.5452 1.58518e-07 14.1427 0.0397461 14.6293C0.0809991 15.1348 0.16968 15.5995 0.392056 16.036C0.736988 16.7129 1.2873 17.2632 1.9642 17.6079C2.40067 17.8303 2.86546 17.919 3.37088 17.9603C3.85765 18 4.45507 18 5.17911 18L5.17911 17.9998Z" fill="#8E98AA"/>
</svg>
