<svg width="19" height="19" viewBox="0 0 19 19" fill="none" xmlns="http://www.w3.org/2000/svg">
<path fill-rule="evenodd" clip-rule="evenodd" d="M18.6407 0.933841C18.6407 0.437132 18.2381 0.0345459 17.7414 0.0345459H11.3821C10.8854 0.0345459 10.4828 0.437132 10.4828 0.933841C10.4828 1.43055 10.8854 1.83314 11.3821 1.83314H15.5702L9.4742 7.92916C9.12294 8.28042 9.12294 8.84985 9.4742 9.20094C9.82546 9.5522 10.3947 9.5522 10.746 9.20094L16.842 3.10491V7.29304C16.842 7.7896 17.2447 8.19234 17.7413 8.19234C18.238 8.19234 18.6406 7.7896 18.6406 7.29304L18.6407 0.933841ZM5.8458 18.0344H13.4747C14.1986 18.0344 14.7962 18.0344 15.2828 17.9946C15.7883 17.9534 16.253 17.8647 16.6894 17.6423C17.3663 17.2976 17.9167 16.7471 18.2614 16.0703C18.4838 15.6339 18.5725 15.1691 18.6137 14.6637C18.6535 14.1771 18.6535 13.5795 18.6535 12.8556V12.1889C18.6535 11.6922 18.2509 11.2896 17.7542 11.2896C17.2575 11.2896 16.8549 11.6922 16.8549 12.1889V12.8184C16.8549 13.5888 16.8542 14.1125 16.8212 14.5173C16.789 14.9116 16.7305 15.1132 16.6589 15.2538C16.4865 15.5923 16.2113 15.8675 15.8728 16.0399C15.7322 16.1116 15.5306 16.17 15.1363 16.2022C14.7314 16.2352 14.2077 16.236 13.4373 16.236H5.88284C5.11243 16.236 4.58878 16.2352 4.18407 16.2022C3.78977 16.17 3.58815 16.1116 3.44755 16.0399C3.10909 15.8675 2.83386 15.5923 2.66145 15.2538C2.58979 15.1132 2.53137 14.9116 2.49915 14.5173C2.46603 14.1125 2.46543 13.5888 2.46543 12.8184V5.26389C2.46543 4.49349 2.46618 3.96984 2.49915 3.56513C2.53137 3.17083 2.58979 2.96921 2.66145 2.8286C2.83385 2.49015 3.10906 2.21492 3.44755 2.04251C3.58817 1.97084 3.78977 1.91243 4.18407 1.88021C4.58893 1.84709 5.11258 1.84648 5.88284 1.84648H6.51233C7.00903 1.84648 7.41162 1.4439 7.41162 0.947188C7.41162 0.450479 7.00903 0.0478934 6.51233 0.0478934H5.84564C5.12176 0.0478934 4.52418 0.0478934 4.03757 0.0876394C3.532 0.128892 3.06736 0.217573 2.63089 0.439949C1.95399 0.784882 1.40367 1.3352 1.05874 2.0121C0.836367 2.44856 0.747686 2.91336 0.706433 3.41878C0.666687 3.90554 0.666687 4.50296 0.666687 5.22685V12.8557C0.666687 13.5798 0.666687 14.1772 0.706433 14.6638C0.747686 15.1694 0.836367 15.634 1.05874 16.0705C1.40368 16.7474 1.95399 17.2977 2.63089 17.6425C3.06736 17.8649 3.53215 17.9535 4.03757 17.9948C4.52433 18.0345 5.12176 18.0345 5.8458 18.0345L5.8458 18.0344Z" fill="#8E98AA"/>
</svg>
