<svg width="35" height="18" viewBox="0 0 35 18" fill="none" xmlns="http://www.w3.org/2000/svg">
<path d="M3.37522 4.05969H8.45135C9.94135 4.07228 11.021 4.49949 11.6902 5.34136C12.3594 6.18326 12.5804 7.33298 12.3531 8.79054C12.2647 9.45652 12.069 10.1099 11.766 10.7507C11.4755 11.3916 11.0715 11.9696 10.5538 12.4848C9.9224 13.1381 9.24686 13.5528 8.52711 13.7287C7.80736 13.9046 7.06235 13.9926 6.2921 13.9926H4.01921L3.29946 17.5737H0.666687L3.37522 4.05969ZM5.59129 6.20837L4.45485 11.8628C4.5306 11.8753 4.60636 11.8816 4.68213 11.8816H4.9473C6.15951 11.8942 7.16966 11.7748 7.97783 11.5235C8.78596 11.2596 9.32892 10.3424 9.60674 8.7717C9.83402 7.45234 9.60672 6.69215 8.92487 6.49108C8.25561 6.29004 7.4159 6.19581 6.40575 6.20837C6.25421 6.22092 6.109 6.22722 5.97011 6.22722C5.84383 6.22722 5.71124 6.22722 5.57235 6.22722L5.59129 6.20837Z" fill="#8E98AA"/>
<path d="M15.3529 0.460815H17.9667L17.228 4.06079H19.5767C20.8646 4.08593 21.8243 4.34981 22.4557 4.85241C23.0996 5.35505 23.289 6.31001 23.0239 7.71731L21.7548 13.9937H19.1031L20.3153 8.00003C20.4416 7.37178 20.4037 6.92569 20.2017 6.66182C19.9997 6.39795 19.564 6.26601 18.8948 6.26601L16.7924 6.24717L15.2392 13.9937H12.6254L15.3529 0.460815Z" fill="#8E98AA"/>
<path d="M25.8311 4.05969H30.9072C32.3972 4.07228 33.4768 4.49949 34.1461 5.34136C34.8153 6.18326 35.0363 7.33298 34.809 8.79054C34.7206 9.45652 34.5249 10.1099 34.2219 10.7507C33.9314 11.3916 33.5273 11.9696 33.0096 12.4848C32.3783 13.1381 31.7027 13.5528 30.983 13.7287C30.2632 13.9046 29.5182 13.9926 28.748 13.9926H26.4751L25.7553 17.5737H23.1226L25.8311 4.05969ZM28.0472 6.20837L26.9107 11.8628C26.9865 11.8753 27.0622 11.8816 27.138 11.8816H27.4032C28.6154 11.8942 29.6255 11.7748 30.4337 11.5235C31.2418 11.2596 31.7848 10.3424 32.0626 8.7717C32.2899 7.45234 32.0626 6.69215 31.3807 6.49108C30.7115 6.29004 29.8718 6.19581 28.8616 6.20837C28.7101 6.22092 28.5649 6.22722 28.426 6.22722C28.2997 6.22722 28.1671 6.22722 28.0282 6.22722L28.0472 6.20837Z" fill="#8E98AA"/>
</svg>
