<svg width="21" height="21" viewBox="0 0 21 21" fill="none" xmlns="http://www.w3.org/2000/svg">
<path fill-rule="evenodd" clip-rule="evenodd" d="M8.40131 0.195136C9.08789 0.0736457 9.86818 0.00396045 10.6853 0.00016387C11.5023 -0.00363276 12.3543 0.0584593 13.1753 0.195136C14.4724 0.411315 15.5651 1.38434 15.5651 2.67963V7.23083C15.5651 8.56543 14.5042 9.65962 13.1753 9.65962H8.40131C6.78042 9.65962 5.41545 11.0512 5.41545 12.6288V14.8124H3.77212C2.38304 14.8124 1.57167 13.8042 1.23192 12.3892C0.77361 10.4883 0.793075 9.35221 1.23192 7.53164C1.61237 5.94334 2.82869 5.10842 4.21777 5.10842H6.01151H10.7911V4.50123H6.01151V2.67963C6.01151 1.30036 6.37873 0.552458 8.40131 0.195136ZM8.99736 2.37882C8.99736 1.87499 8.59419 1.46524 8.10049 1.46524C7.60503 1.46524 7.20362 1.87499 7.20362 2.37882C7.20362 2.88086 7.60503 3.28683 8.10049 3.28683C8.59419 3.28683 8.99736 2.88086 8.99736 2.37882ZM16.1612 7.2309V5.1085H17.9549C19.3457 5.1085 20.0014 6.14888 20.3447 7.53172C20.8225 9.45233 20.8437 10.8921 20.3447 12.3893C19.8616 13.8436 19.344 14.8125 17.9549 14.8125H15.5651H10.7911V15.4197H15.5651V17.2413C15.5651 18.6206 14.3786 19.3217 13.1753 19.6701C11.3651 20.1954 9.91423 20.115 8.40128 19.6701C7.13784 19.2985 6.01149 18.5366 6.01149 17.2413V12.6901C6.01149 11.3805 7.0936 10.2613 8.40128 10.2613H13.1753C14.7661 10.2613 16.1612 8.87638 16.1612 7.2309ZM14.373 17.5421C14.373 17.0401 13.9716 16.6341 13.4761 16.6341C12.9824 16.6341 12.5792 17.0401 12.5792 17.5421C12.5792 18.0459 12.9824 18.4557 13.4761 18.4557C13.9716 18.4557 14.373 18.0459 14.373 17.5421Z" fill="#8E98AA"/>
</svg>
