<svg width="21" height="21" viewBox="0 0 21 21" fill="none" xmlns="http://www.w3.org/2000/svg">
<path d="M10.6668 20.0172C5.12511 20.0172 0.62518 15.6004 0.666976 10.0172C0.708772 4.43401 4.91691 0.0172119 10.6668 0.0172119C16.4171 0.0172119 20.6667 4.51721 20.6667 10.0172C20.6667 15.5172 16.2085 20.0172 10.6668 20.0172ZM13.625 18.4754L10.7918 10.8504L8.12507 18.6422C10.0836 19.1008 11.4168 19.2254 13.625 18.4754ZM6.70869 18.059L2.45875 6.43401C1.87516 7.68401 1.75055 8.72581 1.66696 10.0172C1.70876 13.4336 3.62514 16.5586 6.70869 18.059ZM19.6253 10.0172C19.6667 7.80901 18.6671 6.05901 18.5835 5.80901C18.6671 7.5176 18.4167 8.39221 18.1253 9.35081L15.2086 17.7258C18.8753 15.5172 19.5831 12.2254 19.6667 10.0172H19.6253ZM10.3754 9.64221L8.95865 5.76721L7.91687 5.68401C7.50047 5.39221 7.75008 4.93401 8.04187 4.93401C9.91684 5.05901 10.9582 5.05901 12.8336 4.93401C13.2922 4.93401 13.4168 5.60081 12.875 5.68401L11.875 5.76721L15.1246 15.3504L16.666 10.1004C16.7496 7.80901 16.1242 7.55901 15.291 5.89221C14.6242 4.60042 15.3328 3.35042 16.6246 3.30901C15.5824 2.30901 13.4578 1.05901 10.6661 1.01721C7.87429 0.975415 4.91613 2.39221 3.16616 5.05901L6.24971 4.97581C6.6247 5.1426 6.45791 5.68401 6.24971 5.72581L5.16652 5.80901L8.41647 15.559L10.3754 9.64221Z" fill="#8E98AA"/>
</svg>
